<?xml version="1.0" encoding="utf-8"?>
<!-- Generator: Adobe Illustrator 22.0.1, SVG Export Plug-In . SVG Version: 6.00 Build 0)  -->
<svg version="1.1" id="Layer_1" xmlns="http://www.w3.org/2000/svg" xmlns:xlink="http://www.w3.org/1999/xlink" x="0px" y="0px"
	 viewBox="0 0 512 512" style="enable-background:new 0 0 512 512;" xml:space="preserve">
<style type="text/css">
	.st0{fill:#FFFFFF;}
</style>
<g>
	<path class="st0" d="M471.3,128h-72.7c-6.1,0-11.9-2.7-16-7.2C344.8,78.4,330.5,64,315.1,64h-114c-15.6,0-30.9,14.4-68.9,56.9
		c-4,4.5-9.9,7.1-15.9,7.1H44.8C21.2,128,0,145.6,0,168.9v234.7C0,426.9,21.2,448,44.7,448h426.7c23.5,0,40.7-21.1,40.7-44.4V168.9
		C512,145.6,494.8,128,471.3,128z M330.1,368c-20.7,17.8-47,27.5-74.1,27.5c-56.3,0-105.5-43.3-112.9-98.9h-40.4l52.9-70.5
		l54.8,70.5h-41.1c7.3,41.3,44.8,73.2,86.8,73.2c20.2,0,39.7-7.4,56.4-21.4l4.5-3.6l18.4,18.5L330.1,368z M356.3,340.6l-54.7-72.1
		h41.1c-3.3-20-13.4-38.5-28.6-52.5c-16.2-14.9-36.9-23.1-58.2-23.1c-20.3,0-40.3,7.4-56.4,20.9l-4.5,3.7L176.5,199l5.2-4.5
		c20.7-17.8,47-27.5,74.1-27.5c29.1,0,56.6,10.5,77.5,29.7c18.3,16.7,31.7,44,35.4,71.7H409L356.3,340.6z"/>
</g>
</svg>
